<?xml version="1.0" encoding="iso-8859-1"?>
<!-- Uploaded to: SVG Repo, www.svgrepo.com, Generator: SVG Repo Mixer Tools -->
<svg height="800px" width="800px" version="1.1" id="Capa_1" xmlns="http://www.w3.org/2000/svg" xmlns:xlink="http://www.w3.org/1999/xlink" 
	 viewBox="0 0 29.866 29.866" xml:space="preserve">
<g>
	<g>
		<polygon style="fill:#010002;" points="22.387,15.997 21.594,15.207 20.273,16.527 20.273,19.392 22.387,21.507 		"/>
		<path style="fill:#010002;" d="M14.113,2.625V0.068c-3.771,0.189-7.167,1.78-9.687,4.261l1.805,1.802
			C8.288,4.114,11.047,2.807,14.113,2.625z"/>
		<polygon style="fill:#010002;" points="19.887,19.809 15.905,19.809 13.791,21.922 21.999,21.922 		"/>
		<polygon style="fill:#010002;" points="13.792,7.7 15.906,9.81 19.887,9.81 21.999,7.7 		"/>
		<polygon style="fill:#010002;" points="13.385,13.579 14.175,14.387 15.496,13.045 15.496,10.182 13.385,8.097 		"/>
		<polygon style="fill:#010002;" points="14.582,14.809 15.64,15.867 20.151,15.867 21.209,14.809 20.151,13.755 15.64,13.755 		"/>
		<polygon style="fill:#010002;" points="7.959,16.666 7.959,19.677 10.072,21.893 10.072,16.11 9.279,15.279 		"/>
		<path style="fill:#010002;" d="M5.101,26.153c2.437,2.122,5.565,3.471,9.014,3.645v-2.556c-2.743-0.17-5.239-1.227-7.209-2.895
			L5.101,26.153z"/>
		<polygon style="fill:#010002;" points="10.072,7.81 7.959,10.03 7.959,13.041 9.279,14.449 10.072,13.595 		"/>
		<path style="fill:#010002;" d="M2.557,15.684H0.001c0.183,3.645,1.681,6.931,4.02,9.424l1.804-1.806
			C3.946,21.277,2.734,18.625,2.557,15.684z"/>
		<path style="fill:#010002;" d="M5.227,7.252l-1.82-1.82C1.419,7.829,0.166,10.858,0,14.178h2.557
			C2.713,11.564,3.692,9.175,5.227,7.252z"/>
		<path style="fill:#010002;" d="M27.309,14.179h2.557c-0.166-3.32-1.421-6.35-3.407-8.747l-1.819,1.82
			C26.172,9.175,27.153,11.564,27.309,14.179z"/>
		<path style="fill:#010002;" d="M25.44,4.33c-2.521-2.481-5.915-4.071-9.688-4.261v2.557c3.065,0.182,5.824,1.488,7.881,3.505
			L25.44,4.33z"/>
		<path style="fill:#010002;" d="M15.75,27.243v2.556c3.448-0.175,6.577-1.522,9.014-3.645l-1.805-1.804
			C20.991,26.016,18.493,27.073,15.75,27.243z"/>
		<path style="fill:#010002;" d="M24.04,23.302l1.805,1.806c2.339-2.493,3.837-5.779,4.021-9.424h-2.557
			C27.131,18.625,25.919,21.277,24.04,23.302z"/>
	</g>
</g>
</svg>